<?xml version="1.0" encoding="UTF-8" standalone="no"?>
<!-- Created with Inkscape (http://www.inkscape.org/) -->

<svg
   width="400"
   height="400"
   viewBox="0 0 105.83333 105.83333"
   version="1.1"
   id="svg1"
   xml:space="preserve"
   inkscape:version="1.4 (86a8ad7, 2024-10-11)"
   sodipodi:docname="logo.svg"
   xmlns:inkscape="http://www.inkscape.org/namespaces/inkscape"
   xmlns:sodipodi="http://sodipodi.sourceforge.net/DTD/sodipodi-0.dtd"
   xmlns:xlink="http://www.w3.org/1999/xlink"
   xmlns="http://www.w3.org/2000/svg"
   xmlns:svg="http://www.w3.org/2000/svg"><sodipodi:namedview
     id="namedview1"
     pagecolor="#ffffff"
     bordercolor="#000000"
     borderopacity="0.25"
     inkscape:showpageshadow="2"
     inkscape:pageopacity="0.0"
     inkscape:pagecheckerboard="0"
     inkscape:deskcolor="#d1d1d1"
     inkscape:document-units="mm"
     showguides="false"
     inkscape:zoom="0.1767767"
     inkscape:cx="1091.7729"
     inkscape:cy="223.44574"
     inkscape:window-width="1920"
     inkscape:window-height="1017"
     inkscape:window-x="-8"
     inkscape:window-y="-8"
     inkscape:window-maximized="1"
     inkscape:current-layer="svg1" /><defs
     id="defs1"><linearGradient
       id="linearGradient14"
       inkscape:collect="always"><stop
         style="stop-color:#ff98dd;stop-opacity:1;"
         offset="0"
         id="stop14" /><stop
         style="stop-color:#ff49dd;stop-opacity:1;"
         offset="1"
         id="stop15" /></linearGradient><linearGradient
       id="linearGradient12"
       inkscape:collect="always"><stop
         style="stop-color:#00bfa6;stop-opacity:1;"
         offset="0"
         id="stop12" /><stop
         style="stop-color:#0094a6;stop-opacity:1;"
         offset="1"
         id="stop13" /></linearGradient><linearGradient
       id="linearGradient10"
       inkscape:collect="always"><stop
         style="stop-color:#1e3a8a;stop-opacity:1;"
         offset="0"
         id="stop10" /><stop
         style="stop-color:#1e3ac8;stop-opacity:1;"
         offset="1"
         id="stop11" /></linearGradient><linearGradient
       inkscape:collect="always"
       xlink:href="#linearGradient10"
       id="linearGradient11"
       x1="102.52459"
       y1="167.63145"
       x2="102.52459"
       y2="276.14288"
       gradientUnits="userSpaceOnUse"
       gradientTransform="matrix(0,0.63853446,-0.63853446,0,193.83039,-14.346053)" /><linearGradient
       inkscape:collect="always"
       xlink:href="#linearGradient12"
       id="linearGradient13"
       x1="66.289001"
       y1="228.49655"
       x2="92.744293"
       y2="182.67464"
       gradientUnits="userSpaceOnUse"
       gradientTransform="matrix(0.63853446,0,0,0.63853446,-9.5881823,-94.437424)" /><linearGradient
       inkscape:collect="always"
       xlink:href="#linearGradient14"
       id="linearGradient15"
       x1="129.83842"
       y1="224.65785"
       x2="103.37746"
       y2="270.48959"
       gradientUnits="userSpaceOnUse"
       gradientTransform="matrix(0.63853446,0,0,0.63853446,-9.5881823,-94.437424)" /></defs><path
     id="path8-8"
     style="fill:url(#linearGradient13);fill-opacity:1;stroke:none;stroke-width:0.168945;stroke-opacity:1"
     d="M 76.7568,22.146747 H 32.46699 V 32.729932 A 18.456966,17.560995 0 0 0 16.044957,50.152447 18.456966,17.560995 0 0 0 34.50193,67.713549 18.456966,17.560995 0 0 0 52.958902,50.152447 18.456966,17.560995 0 0 0 51.152634,42.616546 6.9288281,6.5405749 0 0 0 55.168722,36.682996 6.9288281,6.5405749 0 0 0 55.049604,35.54129 h 8.848191 a 8.7006967,7.9404416 0 0 1 8.121928,-5.149869 8.7006967,7.9404416 0 0 1 4.737077,1.28293 z" /><path
     id="rect4-7-5"
     style="fill:url(#linearGradient15);fill-opacity:1;stroke-width:0.657837"
     d="M 70.256694 30.755229 A 19.217559 21.962924 0 0 0 51.039262 52.718229 A 19.217559 21.962924 0 0 0 54.216846 64.786743 L 41.886849 64.786743 A 8.7123647 7.971256 0 0 1 33.754012 69.956453 A 8.7123647 7.971256 0 0 1 29.010632 68.668677 L 29.010632 75.685819 A 3.5057292 2.348177 0 0 1 31.125749 77.841243 A 3.5057292 2.348177 0 0 1 31.070455 78.232951 L 73.359863 78.232951 L 73.359863 74.386674 A 19.217559 21.962924 0 0 0 89.474125 52.718229 A 19.217559 21.962924 0 0 0 70.256694 30.755229 z " /><path
     style="fill:url(#linearGradient11);fill-opacity:1;stroke:none;stroke-width:0.168945;stroke-opacity:1"
     d="m 76.606636,22.146236 c -4.712333,0.01367 -9.788663,0.488389 -13.903405,2.559623 -4.680125,2.355834 -8.572995,6.050478 -11.111087,10.645704 -1.909824,3.457747 -3.251225,7.023451 -4.421161,10.994739 -1.380198,4.685017 -1.950097,9.303071 -5.119246,13.728893 -3.78912,5.291638 -8.023811,5.68585 -12.507242,5.177417 -4.168245,-0.472688 -8.155388,-4.500525 -9.133201,-7.737039 -1.245379,-4.122136 -1.69121,-7.733189 -0.581731,-11.925525 0.801054,-3.026896 3.061818,-5.607802 5.410111,-7.678863 1.888089,-1.665189 7.228025,-2.370559 7.228025,-2.370559 l 0.01117,-13.39439 c 0,0 -5.520226,0.163969 -7.820917,1.163467 -2.638514,1.146265 -5.180328,2.317733 -7.446174,4.362991 -1.731392,1.562839 -3.436018,3.200041 -4.770203,5.119246 -1.153723,1.659608 -2.1012,3.515854 -2.8504944,5.351934 -0.988324,2.421814 -1.796191,4.874872 -2.094234,7.562521 -0.284454,2.565114 -0.491077,5.163988 -0.290865,7.737052 0.19619,2.521336 0.664057,5.04386 1.454333,7.446167 0.777913,2.36473 1.8277474,4.670765 3.1995234,6.748096 1.241445,1.879961 2.777625,3.58472 4.479338,5.061077 1.596534,1.385103 3.358162,2.641362 5.293764,3.490396 2.495029,1.094422 5.191174,1.797241 7.908374,1.996572 2.954078,0.216706 5.959069,-0.325566 8.867344,-0.887214 2.977665,-0.575052 6.047043,-2.025828 8.514883,-3.948934 3.452568,-2.690473 6.237293,-5.915659 8.268069,-10.201401 1.958832,-4.133897 3.356693,-8.161817 4.401412,-12.998569 0.589648,-2.729901 1.533127,-5.142903 2.884419,-7.854229 1.516526,-3.042879 4.353292,-5.663003 7.634012,-6.859942 3.505018,-1.278774 7.996801,-0.457197 11.036143,1.715608 2.41926,1.729515 4.253744,4.519719 4.977299,7.404248 0.63713,2.539988 0.691508,5.020841 0.493613,7.527657 -0.194063,2.458268 -1.361464,4.694039 -2.63262,6.746085 -0.787358,1.271053 -1.714804,2.23473 -2.797158,3.087595 -1.219703,0.96109 -2.615399,1.681452 -4.072331,2.218779 -1.168128,0.430807 -3.820964,0.653163 -3.820964,0.653163 l 0.05817,13.443988 c 0,0 3.234963,-0.05791 4.873423,-0.48157 3.210788,-0.83021 6.465686,-1.766997 9.131899,-3.948927 2.251428,-1.842485 4.424859,-3.786473 6.0468,-6.293608 1.752994,-2.709717 3.190271,-5.57083 4.031196,-8.802824 0.657863,-2.528398 1.317488,-4.948872 1.275179,-7.733329 -0.03697,-2.433206 -0.04629,-4.896889 -0.534754,-7.280838 -0.819022,-3.997162 -1.970121,-8.049991 -4.48368,-11.31204 -2.059944,-2.673359 -4.313352,-5.442721 -7.321973,-6.992897 -3.048663,-1.570808 -6.241911,-3.250537 -9.765057,-3.24032 z"
     id="path4-7"
     sodipodi:nodetypes="sssssssssccsssssssssssssssssssssssccssssssssss" /></svg>
